<svg xmlns="http://www.w3.org/2000/svg" viewBox="50 290 1820 560">
  <g>
    <path fill="#fff" d="M66.41,339.67c47.59-18.4,98.92-13.5,149.61-12.51l34.66,198.23,73.49-204.34c22.24-8.6,45.69-13.55,71.63-10.13l40.57,200.25c19.66-51.44,37.39-103,51.81-156.5,2.02-7.51,2.41-15.31-1.38-21.1-3.53-5.4-8.6-5.82-11.17-5.63-1.06.08-2.06-.49-2.57-1.43-.84-1.53-2.06-3.87-2.84-6.02,29.9-10.26,60.22-16.27,94.07-13.35l-120.04,298.89c-21.71,9.55-42.09,17.72-66.58,16.24l-44.49-184.86-75.18,197.27c-22.08,9.56-44.38,16.27-68.52,16.8l-59.92-267.71c-3.57-15.97-15.12-29.14-30.68-34.23-9.79-3.2-20.99-6.74-32.47-9.86Z"/>
    <path fill="#fff" d="M1208.83,546.85c-56.5,78.09-221.47,74.11-311.35,37.24,11.67-27.65,19.39-51.95,24.62-79.22,3.91-1.19,9.34-2.13,9.34-2.13,0,0,8.3,34.98,49.82,52.77,60.13,25.76,137.53,5.86,137.09-33.23-.12-10.34-8.07-21.58-19.47-26.16l-98.52-39.6c-19.31-7.76-34.96-22.36-40.22-37.6-7.99-23.14-5.92-44.78,5.65-64.09,49.87-83.23,196.51-89.66,288.19-61.53l-29.29,68.21c-8.35,1.37-12.44,1.37-12.44,1.37,0,0-12.62-29.18-29.43-35.92-52.3-20.96-120.65,3.07-117.57,37.37.93,10.39,9.05,20.59,19.99,25.42l92.41,40.77c21.72,9.58,38.67,27.7,43.79,46.82,6.84,25.52,2.04,49.25-12.62,69.51Z"/>
    <path fill="#fff" d="M1621.78,560.75l25.99-106.93c1.53-6.3.39-12.83-3.8-16.19-14.13-11.34-40.15,12.04-57.62,29.94l-23.62,115.63c-26.68,3.72-51.53,6.42-78.18,4.94l34.91-166.53c1.14-5.71-.18-11.27-2.71-14.05-3.02-3.32-9.28-6.76-16.54-5.11.5-6.05,5.97-12.39,5.97-12.39,0,0,23.28-9.05,99.25-9.96l-10.96,49.5c34.18-35.13,100.53-69.24,128.76-42.85,8.47,7.92,11.89,20.83,8.87,33.46l-27.81,116.25c-1.25,5.22-.17,10.89,2.2,14.12,9.47,12.9,31.17-6.06,44.86-1.53-30.7,31.68-92.59,63.26-120.52,40.93-7.05-5.64-11.93-17.4-9.05-29.24Z"/>
    <path fill="#fff" d="M1238.12,550.34l24.43-125.35c1.19-6.11,1.35-11.32-1.83-16.37-2.66-4.24-7.8-7.45-15.64-7.21.9-2.74,1.66-4.62,3.23-7.54,15.67-12.19,70.16-13.27,98.94-11.99l-29.92,136.22c-1.56,7.12,1.2,14.61,6.73,17.82,14.7,8.53,34.21-13.75,48.62-31.83l27.27-120.64c18.59-2.9,57.66-4.39,76.57-2.99l-33.64,150.42c-1.34,6.01.51,12.38,4.68,15.49,12.8,9.52,33.73-11.55,43.57-5.05-27.49,31.68-100.98,68.97-121.06,41.53-6.92-9.45-6.29-21.16-4.72-35.46-30.8,31.03-87.66,63.42-115.22,37.01-6.99-6.7-14.74-20.11-12.02-34.05Z"/>
    <path fill="#fff" d="M582.43,514.02c41.27-2.44,82.26-15.61,106.27-48.37,12.51-17.07,16.25-37.9,7.29-56.38-7.68-15.83-26.03-26.55-46.94-27.17-75.58-2.31-139.32,60.22-138.21,135.17.7,46.82,34.47,75.89,79.5,77.56,47.91,1.75,93.8-23.18,106.66-72.58-22.77,16.51-44.05,30.86-71.49,31.54-26.2.66-45.15-16.27-43.08-39.78ZM634.1,413.92c5.59,1.32,10.16,7.33,9.83,14.39-1.53,34.29-28.36,59.6-61,60.65,3.3-36.58,28.74-80.36,51.18-75.04Z"/>
    <path fill="#fff" d="M781.66,580.34c-24.11,6.33-48.04,7.38-72.06,7.11l19.8-154.29c2.12-16.51-1-22.47-18.94-32.05,31.21-16.69,62.44-19.75,95.2-18.36l-7.71,49.71c19.43-32.99,58.32-67.81,80.96-49.96,18.83,14.85,4.52,74.53-28.92,83.99.77-8.2,2.27-16.68-4.54-21.63-16.86-12.27-42.38,14.15-54.32,36.95l-9.48,98.54Z"/>
    <path fill="#fff" d="M888.71,393.32c15.57-27.59,12.54-56.85-14.83-74.15,11.76-22.39,39.56-31.34,63.34-26.79,13.58,2.6,19.14,16.89,16.48,30.34-6.56,33.11-31.83,60.16-64.99,70.59Z"/>
  </g>
  <path fill="#ddae36" d="M177.65,735.22s199.78-54.07,716.53-60.47c516.75-6.39,745.83,52.21,745.83,52.21,0,0,30.85-8.48,62.6-15.58l68.46-15.32s-350.54-53.27-877.41-47.95c-411.52,4.16-715.99,87.1-715.99,87.1Z"/>
  <g>
    <polygon fill="#ddae36" points="471.19 775.84 262.36 771.71 471.19 767.58 471.19 775.84"/>
    <polygon fill="#ddae36" points="1461.54 767.58 1670.37 771.71 1461.54 775.84 1461.54 767.58"/>
    <g>
      <path fill="#fff" d="M568.9,762.24c0,13.45-10.29,21.82-26.74,21.82h-12.41v16.65h-14.25v-60.37h26.66c16.45,0,26.74,8.37,26.74,21.91ZM554.48,762.24c0-6.64-4.4-10.52-13.11-10.52h-11.61v20.96h11.61c8.71,0,13.11-3.88,13.11-10.43Z"/>
      <path fill="#fff" d="M608.14,740.34h14.25v48.99h30.88v11.38h-45.13v-60.37Z"/>
      <path fill="#fff" d="M731.48,787.77h-28.59l-5.46,12.94h-14.6l27.45-60.37h14.08l27.54,60.37h-14.96l-5.45-12.94ZM726.99,777.16l-9.77-23.11-9.77,23.11h19.53Z"/>
      <path fill="#fff" d="M797.1,751.72h-19.71v-11.38h53.67v11.38h-19.71v48.99h-14.25v-48.99Z"/>
      <path fill="#fff" d="M905.31,787.77h-28.59l-5.46,12.94h-14.6l27.45-60.37h14.08l27.54,60.37h-14.96l-5.45-12.94ZM900.83,777.16l-9.77-23.11-9.77,23.11h19.53Z"/>
      <path fill="#fff" d="M975.51,751.55v15.95h28.51v11.21h-28.51v21.99h-14.25v-60.37h46.54v11.21h-32.29Z"/>
      <path fill="#fff" d="M1042.11,770.52c0-17.94,14.25-31.22,33.7-31.22s33.69,13.2,33.69,31.22-14.34,31.22-33.69,31.22-33.7-13.28-33.7-31.22ZM1095.07,770.52c0-11.47-8.27-19.32-19.27-19.32s-19.27,7.85-19.27,19.32,8.27,19.32,19.27,19.32,19.27-7.85,19.27-19.32Z"/>
      <path fill="#fff" d="M1188.59,800.71l-11.88-16.82h-13.11v16.82h-14.25v-60.37h26.66c16.45,0,26.75,8.37,26.75,21.91c0,9.06-4.66,15.7-12.67,19.06l13.81,19.41h-15.31ZM1175.21,751.72h-11.61v21.04h11.61c8.71,0,13.11-3.97,13.11-10.52s-4.4-10.52-13.11-10.52Z"/>
      <path fill="#fff" d="M1299.17,800.71l-.09-36.22-18.12,29.84h-6.42l-18.04-29.06v35.45h-13.37v-60.37h11.79l23.05,37.52,22.7-37.52h11.7l.18,60.37h-13.37Z"/>
      <path fill="#fff" d="M1396.81,787.77h-28.59l-5.46,12.94h-14.6l27.45-60.37h14.08l27.54,60.37h-14.96l-5.46-12.94ZM1392.33,777.16l-9.77-23.11-9.77,23.11h19.53Z"/>
    </g>
  </g>
</svg>
