<svg version="1.2" xmlns="http://www.w3.org/2000/svg" viewBox="0 0 636 637" width="636" height="637"><defs><linearGradient id="P" gradientUnits="userSpaceOnUse"/><linearGradient id="g1" x2="1" href="#P" gradientTransform="matrix(276.28,301.77,-326.73,299.131,183.49,404.65)"><stop stop-color="#c80010"/><stop offset=".5" stop-color="#ff6332"/><stop offset="1" stop-color="#c10f00"/></linearGradient><linearGradient id="g2" x2="1" href="#P" gradientTransform="matrix(811.95,886.91,-889.823,814.617,-116.09,-166.48)"><stop stop-color="#00214d"/><stop offset=".5" stop-color="#006eff"/><stop offset="1" stop-color="#000533"/></linearGradient></defs><style>.a{fill:url(#g1)}.b{fill:url(#g2)}.c{fill:#fff}</style><path class="a" d="m612.8 545.5c-7.1 33-33.6 58.6-67 64.4-70.3 12.3-146.3 19-225.6 19-79.3 0-155.3-6.7-225.6-19-33-5.7-59.1-30.6-66.7-62.8 12.5 20.7 34 35.6 59.3 39.9 72.5 12.3 150.9 19 232.7 19 81.8 0 160.2-6.7 232.7-19 26-4.4 47.8-20 60.2-41.5z"/><path class="b" d="m632.4 316.7c0 79.3-6.7 155.3-19 225.6q-0.3 1.6-0.6 3.2v0.1c-12.4 21.4-34.2 37-60.2 41.4-72.5 12.3-150.9 19-232.7 19-81.8 0-160.1-6.7-232.7-19-25.3-4.3-46.8-19.2-59.3-39.9q-0.5-2.4-1-4.8c-12.3-70.3-19-146.3-19-225.6 0-79.3 6.7-155.3 19-225.6 6.1-34.5 33.1-61.6 67.7-67.6 70.3-12.3 146.3-19 225.6-19 79.3 0 155.3 6.7 225.6 19 34.5 6 61.6 33.1 67.6 67.6 12.3 70.3 19 146.3 19 225.6z"/><path class="c" d="m131.6 445.9v12.1h19.2v6.2h-19.2v15.2h-7.3v-39.7h28.9v6.2z"/><path class="c" d="m184.6 479.4l-8.1-11.6q-0.8 0-1.5 0h-9v11.6h-7.4v-39.7h16.4c10.4 0 16.8 5.3 16.8 14.1 0 6-3 10.5-8.4 12.6l9.1 13h-7.9zm-10-33.4h-8.6v15.8h8.6c6.5 0 9.8-3 9.8-8 0-4.9-3.3-7.8-9.8-7.8z"/><path class="c" d="m226.4 470.2h-19.8l-3.9 9.2h-7.6l17.8-39.7h7.3l17.9 39.7h-7.7c0 0-4-9.2-4-9.2zm-2.4-5.8l-7.5-17.3-7.4 17.3c0 0 14.9 0 14.9 0z"/><path class="c" d="m277.3 439.7v39.7h-6l-21.9-26.9v26.9h-7.3v-39.7h6l21.9 26.9v-26.9z"/><path class="c" d="m284 459.5c0-11.8 9-20.4 21.2-20.4 6.5 0 12 2.4 15.7 6.7l-4.7 4.5c-2.9-3.2-6.5-4.7-10.6-4.7-8.3 0-14.2 5.8-14.2 14 0 8.1 5.9 13.9 14.2 13.9 4.1 0 7.7-1.5 10.6-4.7l4.7 4.5c-3.7 4.3-9.2 6.7-15.7 6.7-12.2 0-21.2-8.6-21.2-20.5z"/><path class="c" d="m361.5 439.7v39.7h-7.3v-17h-20.5v17h-7.4v-39.7h7.4v16.4h20.5v-16.4z"/><path class="c" d="m370.8 439.7h7.4v39.7h-7.4z"/><path class="c" d="m384.5 475.2l2.5-5.7c3.2 2.5 8.3 4.3 13.1 4.3 6.2 0 8.8-2.2 8.8-5.1 0-8.6-23.6-3-23.6-17.7 0-6.4 5.1-11.9 16-11.9 4.8 0 9.8 1.3 13.2 3.6l-2.3 5.7c-3.6-2.1-7.5-3.1-10.9-3.1-6.2 0-8.7 2.3-8.7 5.3 0 8.5 23.6 3 23.6 17.6 0 6.3-5.2 11.7-16.1 11.7-6.2 0-12.3-1.9-15.6-4.7z"/><path class="c" d="m422.5 439.7h7.4v39.7h-7.4z"/><path class="c" d="m474.3 439.7v39.7h-6.1l-21.8-26.9v26.9h-7.3v-39.7h6l21.9 26.9v-26.9z"/><path class="c" d="m510.9 459.1h7v15.8c-4.2 3.3-10 5-15.6 5-12.3 0-21.3-8.5-21.3-20.4 0-11.8 9-20.4 21.4-20.4 6.7 0 12.2 2.3 16 6.5l-4.7 4.5c-3.1-3.1-6.7-4.5-10.9-4.5-8.5 0-14.4 5.7-14.4 14 0 8.2 5.9 13.9 14.3 13.9 2.8 0 5.6-0.6 8.2-2v-12.4z"/><path class="c" d="m167.7 197.8c-52.9 0-95.7 45.6-95.7 101.9 0 56.3 42.8 101.9 95.7 101.9 52.8 0 95.7-45.6 95.7-101.9 0-56.3-42.9-101.9-95.7-101.9zm8.8 184.8c-18.3 1.8-36.8-34.1-41.4-80.2-4.5-46.1 6.6-84.9 24.9-86.7 18.3-1.8 36.8 34.1 41.4 80.2 4.5 46.1-6.6 84.9-24.9 86.7z"/><path class="c" d="m368.3 203.4h-105.9c-1.7 0-3.1 1.4-3.1 3.1v1.5c0 1.7 0.8 3.2 2.1 4.3l13.2 10.3c0.8 0.6 1.3 1.5 1.3 2.6v151.1l-14.7 12.9c-1.2 1-1.9 2.5-1.9 4v2.9c0 1.1 0.9 1.9 1.9 1.9h90.9c1.2 0 2.2-1 2.2-2.2v-2.2c0-2.1-1.1-4-2.8-5l-17.3-11.8v-53.6h41.9c12.5 0 24.9-3.6 35.2-10.8 12.6-8.6 25.1-23.8 25.1-50.1 0-28.6-17.3-43.4-33.1-51.1-10.9-5.3-22.9-7.8-35-7.8zm-33.1 105c-0.9-0.1-1.6-0.8-1.6-1.7v-84.7c0-6.2 42.9-7.2 42.9 43.4 0 44.8-33.7 43.8-41.3 43z"/><path class="c" d="m424.3 203.7c-0.7 0-1 0.9-0.5 1.3l2.3 2.3c8.8 8.8 16.4 19.7 19.7 31.7l0.7 3.6c0.2 0.9 1 1.6 1.9 1.6 3.7 0 12.5 0 13.6 0h80.8c1.5 0 2.5 1.7 1.7 3l-87.3 147.9c-0.8 1.3 0.2 2.9 1.7 2.9h53.6c1.7 0 3.2-1.1 3.6-2.7l51.2-170.6c1.1-3.7 1.7-7.7 1.7-11.6v-8.5c0-0.7-0.5-1.2-1.2-1.2h-125.5c-1 0-13.3 0.2-18 0.3z"/></svg>